<svg width="24" height="24" viewBox="0 0 24 24" fill="none" xmlns="http://www.w3.org/2000/svg">
<path fill-rule="evenodd" clip-rule="evenodd" d="M7 2.99998C7 1.89541 7.89543 0.999977 9 0.999977H15C16.1046 0.999977 17 1.89541 17 2.99998V4.99998H21C21.5523 4.99998 22 5.44769 22 5.99998C22 6.55226 21.5523 6.99998 21 6.99998H19.8824L19.1107 20.1174C19.0486 21.1746 18.1731 22 17.1142 22H6.88581C5.82686 22 4.95145 21.1746 4.88926 20.1174L4.11765 6.99998H3C2.44772 6.99998 2 6.55226 2 5.99998C2 5.44769 2.44772 4.99998 3 4.99998H7V2.99998ZM9 4.99998H15V2.99998H9V4.99998ZM6.12111 6.99998L6.88581 20H17.1142L17.8789 6.99998H6.12111Z" fill="black"/>
</svg>
