<svg width="24" height="24" viewBox="0 0 24 24" fill="none" xmlns="http://www.w3.org/2000/svg">
<path d="M15.5907 8.00003L13.005 5.41428V15.0001C13.005 15.5523 12.5573 16.0001 12.005 16.0001C11.4527 16.0001 11.005 15.5523 11.005 15.0001L11.005 5.41428L8.41917 8.00009C8.02865 8.39062 7.39548 8.39062 7.00496 8.00009C6.95614 7.95128 6.91343 7.89867 6.87682 7.84322C6.62054 7.45507 6.66325 6.92759 7.00496 6.58588L11.2979 2.29295C11.4854 2.10542 11.7398 2.00006 12.005 2.00006C12.2702 2.00006 12.5246 2.10542 12.7121 2.29295L17.005 6.58582C17.3955 6.97634 17.3955 7.60951 17.005 8.00003C16.6144 8.39056 15.9813 8.39056 15.5907 8.00003Z" fill="black"/>
<path d="M4.00488 14.0001C4.55717 14.0001 5.00488 14.4478 5.00488 15.0001V19.0001L19.0049 19.0001V15.0001C19.0049 14.4478 19.4526 14.0001 20.0049 14.0001C20.5572 14.0001 21.0049 14.4478 21.0049 15.0001V19.0001C21.0049 20.1047 20.1095 21.0001 19.0049 21.0001H5.00488C3.90031 21.0001 3.00488 20.1047 3.00488 19.0001V15.0001C3.00488 14.4478 3.4526 14.0001 4.00488 14.0001Z" fill="black"/>
</svg>
