<svg width="24" height="24" viewBox="0 0 24 24" fill="none" xmlns="http://www.w3.org/2000/svg">
<path fill-rule="evenodd" clip-rule="evenodd" d="M16 7C16 9.20914 14.2091 11 12 11C9.79086 11 8 9.20914 8 7C8 4.79086 9.79086 3 12 3C14.2091 3 16 4.79086 16 7ZM14 7C14 8.10457 13.1046 9 12 9C10.8954 9 10 8.10457 10 7C10 5.89543 10.8954 5 12 5C13.1046 5 14 5.89543 14 7Z" fill="black"/>
<path fill-rule="evenodd" clip-rule="evenodd" d="M12 12.5C8.7288 12.5 5.82446 14.0707 4 16.499V21H20V16.499C18.1755 14.0707 15.2712 12.5 12 12.5ZM18 17.2082C16.5317 15.5446 14.3881 14.5 12 14.5C9.61192 14.5 7.4683 15.5446 6 17.2082V19H18V17.2082Z" fill="black"/>
</svg>
